<?xml version="1.0" encoding="UTF-8" standalone="no"?>
<!DOCTYPE svg PUBLIC "-//W3C//DTD SVG 1.1//EN" "http://www.w3.org/Graphics/SVG/1.1/DTD/svg11.dtd">
<svg width="100%" height="100%" viewBox="0 0 176 58" version="1.1" xmlns="http://www.w3.org/2000/svg" xmlns:xlink="http://www.w3.org/1999/xlink" xml:space="preserve" xmlns:serif="http://www.serif.com/" style="fill-rule:evenodd;clip-rule:evenodd;stroke-linejoin:round;stroke-miterlimit:2;">
    <g transform="matrix(1,0,0,1,-2188.61,-228.506)">
        <g id="Artboard4" transform="matrix(0.807283,0,0,0.795368,425.722,51.1386)">
            <rect x="2183.73" y="223" width="217.038" height="72.607" style="fill:none;"/>
            <g>
                <g>
                    <g transform="matrix(1.65325,0,0,3.5337,1722.47,-595.091)">
                        <path d="M387.752,236.433C387.752,237.468 387.416,238.345 386.744,239.065C386.072,239.785 385.25,240.145 384.28,240.145C383.245,240.145 382.373,239.78 381.664,239.049C380.954,238.319 380.6,237.425 380.6,236.369C380.6,235.271 380.938,234.372 381.616,233.673C382.293,232.975 383.16,232.625 384.216,232.625C385.218,232.625 386.058,232.991 386.736,233.721C387.413,234.452 387.752,235.356 387.752,236.433ZM386.248,236.481C386.248,235.244 385.997,234.268 385.496,233.553C385.176,233.095 384.733,232.865 384.168,232.865C383.389,232.865 382.824,233.292 382.472,234.145C382.226,234.743 382.104,235.5 382.104,236.417C382.104,237.516 382.296,238.375 382.68,238.993C383.064,239.612 383.597,239.921 384.28,239.921C385.592,239.921 386.248,238.775 386.248,236.481Z" style="fill-rule:nonzero;"/>
                    </g>
                    <g transform="matrix(1.65325,0,0,3.5337,1722.08,-595.091)">
                        <path d="M394.44,234.673C394.44,234.812 394.402,234.881 394.328,234.881C394.221,234.881 394.152,234.78 394.12,234.577C394.045,234.012 393.89,233.612 393.656,233.377C393.421,233.143 392.829,233.025 391.88,233.025C391.602,233.025 391.24,233.031 390.792,233.041L390.792,236.049L391.16,236.049C391.864,236.049 392.296,235.985 392.456,235.857C392.616,235.729 392.722,235.351 392.776,234.721C392.786,234.583 392.84,234.513 392.936,234.513C393.042,234.513 393.096,234.599 393.096,234.769C393.096,234.855 393.09,234.972 393.08,235.121C393.069,235.271 393.064,235.633 393.064,236.209C393.064,236.305 393.069,236.465 393.08,236.689C393.09,236.913 393.096,237.196 393.096,237.537L393.096,237.601C393.096,237.804 393.037,237.905 392.92,237.905C392.834,237.905 392.781,237.82 392.76,237.649C392.685,236.999 392.584,236.615 392.456,236.497C392.328,236.38 391.944,236.321 391.304,236.321L390.792,236.321L390.792,239.409C390.77,239.612 390.845,239.735 391.016,239.777C391.069,239.799 391.234,239.809 391.512,239.809C391.661,239.809 391.736,239.847 391.736,239.921C391.736,239.996 391.666,240.033 391.528,240.033L390.936,240.033C390.754,240.023 390.637,240.017 390.584,240.017L389.368,240.017C389.261,240.017 389.149,240.023 389.032,240.033L388.856,240.033C388.674,240.033 388.584,239.996 388.584,239.921C388.584,239.836 388.658,239.793 388.808,239.793C389.138,239.793 389.33,239.769 389.384,239.721C389.437,239.673 389.464,239.511 389.464,239.233L389.464,233.585C389.464,233.297 389.437,233.129 389.384,233.081C389.33,233.033 389.144,233.004 388.824,232.993C388.674,232.993 388.6,232.945 388.6,232.849C388.6,232.764 388.712,232.721 388.936,232.721L391.992,232.737C393.133,232.748 393.885,232.716 394.248,232.641L394.264,232.801L394.328,233.537L394.408,234.369C394.429,234.593 394.44,234.695 394.44,234.673Z" style="fill-rule:nonzero;"/>
                    </g>
                </g>
                <g transform="matrix(1.65325,0,0,3.5337,1720.87,-595.091)">
                    <path d="M405.096,239.937C405.096,240.001 404.989,240.033 404.776,240.033L404.664,240.033L403.672,240.001L403.224,240.001C403.042,240.001 402.792,240.007 402.472,240.017L401.992,240.033L401.704,240.049L401.624,240.049C401.432,240.049 401.336,240.007 401.336,239.921C401.336,239.836 401.528,239.788 401.912,239.777C402.37,239.767 402.6,239.713 402.6,239.617C402.6,239.596 402.568,239.495 402.504,239.313C402.482,239.228 402.36,238.871 402.136,238.241L401.944,237.697L399.656,237.697C399.218,238.796 399,239.431 399,239.601C399,239.697 399.064,239.751 399.192,239.761L399.4,239.777L399.64,239.777L399.784,239.793C399.912,239.793 399.976,239.831 399.976,239.905C399.976,239.991 399.864,240.033 399.64,240.033C399.608,240.033 399.418,240.025 399.072,240.009C398.725,239.993 398.418,239.985 398.152,239.985L398.008,239.985L397.864,240.001L397.688,240.017L397.656,240.017C397.485,240.017 397.4,239.985 397.4,239.921C397.4,239.847 397.469,239.804 397.608,239.793C397.8,239.783 397.928,239.772 397.992,239.761C398.173,239.729 398.29,239.681 398.344,239.617C398.408,239.585 398.669,238.977 399.128,237.793C399.309,237.313 399.485,236.865 399.656,236.449C399.72,236.3 399.762,236.188 399.784,236.113C399.805,236.039 399.848,235.927 399.912,235.777C400.093,235.34 400.349,234.679 400.68,233.793L400.92,233.121L401.032,232.833C401.096,232.673 401.16,232.593 401.224,232.593C401.256,232.593 401.325,232.743 401.432,233.041C401.752,233.82 402.578,235.879 403.912,239.217C404.04,239.548 404.162,239.724 404.28,239.745C404.312,239.756 404.482,239.772 404.792,239.793C404.994,239.804 405.096,239.852 405.096,239.937ZM401.848,237.409L400.808,234.673C400.552,235.313 400.2,236.225 399.752,237.409L401.848,237.409Z" style="fill-rule:nonzero;"/>
                </g>
                <g transform="matrix(3.2429,0,0,2.6289,-1925.51,-1531.72)">
                    <rect x="1318.94" y="680.069" width="12.351" height="0.546"/>
                </g>
            </g>
            <g>
                <g transform="matrix(1.65325,0,0,3.32807,1594.23,-507.408)">
                    <path d="M388.656,237.037C388.656,237.077 388.649,237.191 388.636,237.377C388.582,238.097 388.556,238.604 388.556,238.897C388.556,239.097 388.576,239.391 388.616,239.777L388.616,239.917C388.616,240.051 388.562,240.117 388.456,240.117C388.349,240.117 388.242,240.004 388.136,239.777L387.956,239.397C387.942,239.371 387.922,239.331 387.896,239.277C387.296,239.877 386.469,240.177 385.416,240.177C384.069,240.177 382.949,239.727 382.056,238.827C381.162,237.927 380.716,236.797 380.716,235.437C380.716,234.077 381.129,232.961 381.956,232.087C382.782,231.214 383.836,230.777 385.116,230.777C386.116,230.777 386.956,231.037 387.636,231.557C387.689,231.611 387.742,231.637 387.796,231.637C387.862,231.637 387.922,231.551 387.976,231.377C388.069,231.084 388.182,230.937 388.316,230.937C388.409,230.937 388.456,230.991 388.456,231.097C388.456,231.111 388.442,231.171 388.416,231.277C388.336,231.731 388.289,232.404 388.276,233.297C388.262,233.857 388.189,234.137 388.056,234.137C387.949,234.137 387.876,234.037 387.836,233.837C387.702,233.117 387.542,232.584 387.356,232.237C386.929,231.477 386.229,231.097 385.256,231.097C384.442,231.097 383.796,231.491 383.316,232.277C382.836,233.064 382.596,234.131 382.596,235.477C382.596,236.824 382.862,237.891 383.396,238.677C383.929,239.464 384.649,239.857 385.556,239.857C386.249,239.857 386.826,239.621 387.286,239.147C387.746,238.674 388.049,238.017 388.196,237.177C388.262,236.831 388.349,236.657 388.456,236.657C388.589,236.657 388.656,236.784 388.656,237.037Z" style="fill-rule:nonzero;"/>
                </g>
                <g transform="matrix(1.65325,0,0,3.32807,1594.23,-507.408)">
                    <path d="M397.336,237.857C397.336,237.871 397.329,237.954 397.316,238.107C397.302,238.261 397.296,238.397 397.296,238.517L397.276,239.657C397.276,239.791 397.282,239.937 397.296,240.097L393.976,240.037L390.176,240.057C389.896,240.057 389.756,240.011 389.756,239.917C389.756,239.811 389.836,239.757 389.996,239.757C390.422,239.757 390.672,239.727 390.746,239.667C390.819,239.607 390.856,239.391 390.856,239.017L390.856,232.137C390.856,231.591 390.809,231.301 390.716,231.267C390.622,231.234 390.389,231.217 390.016,231.217C389.856,231.217 389.776,231.171 389.776,231.077C389.776,230.971 389.862,230.917 390.036,230.917L390.916,230.917C391.062,230.931 391.136,230.937 391.136,230.937L391.636,230.937C391.702,230.937 392.036,230.931 392.636,230.917L396.016,230.917C396.362,230.917 396.649,230.904 396.876,230.877L396.876,231.017L396.896,231.317C396.922,231.517 396.976,232.117 397.056,233.117C397.069,233.184 397.076,233.264 397.076,233.357C397.076,233.531 397.029,233.617 396.936,233.617C396.816,233.617 396.729,233.484 396.676,233.217C396.489,232.204 396.136,231.611 395.616,231.437C395.322,231.344 394.629,231.297 393.536,231.297L392.516,231.297L392.516,235.037L392.996,235.037C393.849,235.037 394.376,234.967 394.576,234.827C394.776,234.687 394.909,234.304 394.976,233.677C395.016,233.304 395.096,233.117 395.216,233.117C395.349,233.117 395.416,233.251 395.416,233.517C395.416,233.677 395.406,233.924 395.386,234.257C395.366,234.591 395.356,234.844 395.356,235.017C395.356,235.884 395.376,236.477 395.416,236.797C395.429,236.904 395.436,236.991 395.436,237.057C395.436,237.271 395.369,237.377 395.236,237.377C395.116,237.377 395.036,237.211 394.996,236.877C394.916,236.157 394.782,235.727 394.596,235.587C394.409,235.447 393.882,235.377 393.016,235.377L392.516,235.377L392.516,239.697C394.476,239.684 395.629,239.631 395.976,239.537C396.509,239.391 396.822,238.751 396.916,237.617C396.929,237.417 397.002,237.317 397.136,237.317C397.269,237.317 397.336,237.497 397.336,237.857Z" style="fill-rule:nonzero;"/>
                </g>
                <g transform="matrix(1.65325,0,0,3.32807,1594.23,-507.408)">
                    <path d="M406.476,239.537C406.476,239.964 406.102,240.177 405.356,240.177C404.636,240.177 404.049,239.904 403.596,239.357C403.396,239.117 403.262,238.877 403.196,238.637C403.129,238.397 403.049,237.831 402.956,236.937C402.889,236.364 402.706,235.964 402.406,235.737C402.106,235.511 401.589,235.384 400.856,235.357L400.856,239.477C400.816,239.664 401.156,239.757 401.876,239.757C402.022,239.757 402.096,239.804 402.096,239.897C402.096,239.991 402.002,240.037 401.816,240.037C401.669,240.037 401.529,240.031 401.396,240.017L400.696,240.017C400.402,240.017 400.049,240.024 399.636,240.037L398.596,240.037C398.222,240.037 398.036,239.991 398.036,239.897C398.036,239.791 398.102,239.737 398.236,239.737C398.276,239.737 398.342,239.744 398.436,239.757L398.516,239.757C398.969,239.757 399.196,239.664 399.196,239.477L399.196,231.577C399.196,231.431 399.159,231.334 399.086,231.287C399.012,231.241 398.819,231.217 398.506,231.217C398.192,231.217 398.036,231.164 398.036,231.057C398.036,230.964 398.129,230.917 398.316,230.917L398.456,230.917C398.669,230.944 399.302,230.957 400.356,230.957C400.796,230.957 401.156,230.951 401.436,230.937C401.716,230.924 401.936,230.917 402.096,230.917C402.989,230.917 403.706,231.101 404.246,231.467C404.786,231.834 405.056,232.317 405.056,232.917C405.056,233.571 404.769,234.101 404.196,234.507C403.622,234.914 402.816,235.151 401.776,235.217C402.896,235.337 403.666,235.631 404.086,236.097C404.506,236.564 404.776,237.404 404.896,238.617C404.976,239.444 405.222,239.857 405.636,239.857C405.702,239.857 405.736,239.837 405.736,239.797C405.736,239.784 405.719,239.741 405.686,239.667C405.652,239.594 405.636,239.537 405.636,239.497C405.636,239.244 405.769,239.117 406.036,239.117C406.329,239.117 406.476,239.257 406.476,239.537ZM403.316,233.037C403.316,231.837 402.722,231.237 401.536,231.237C401.229,231.237 401.039,231.267 400.966,231.327C400.892,231.387 400.856,231.531 400.856,231.757L400.856,235.037C402.496,235.037 403.316,234.371 403.316,233.037Z" style="fill-rule:nonzero;"/>
                </g>
                <g transform="matrix(1.65325,0,0,3.32807,1593.77,-507.408)">
                    <path d="M414.616,233.417C414.616,233.604 414.536,233.697 414.376,233.697C414.202,233.697 414.109,233.571 414.096,233.317C414.056,232.771 413.942,232.324 413.756,231.977C413.502,231.497 412.922,231.257 412.016,231.257C411.882,231.257 411.676,231.264 411.396,231.277L411.396,239.317C411.396,239.571 411.589,239.704 411.976,239.717C412.362,239.731 412.556,239.784 412.556,239.877C412.556,239.971 412.442,240.017 412.216,240.017L412.076,240.017C411.956,240.017 411.769,240.011 411.516,239.997L410.516,239.997C410.236,240.011 409.876,240.017 409.436,240.017L408.956,240.017C408.689,240.017 408.556,239.971 408.556,239.877C408.556,239.784 408.776,239.731 409.216,239.717C409.376,239.717 409.482,239.704 409.536,239.677C409.642,239.651 409.702,239.581 409.716,239.467C409.729,239.354 409.736,239.017 409.736,238.457L409.736,231.277C408.696,231.264 408.019,231.371 407.706,231.597C407.392,231.824 407.182,232.357 407.076,233.197C407.036,233.504 406.949,233.657 406.816,233.657C406.696,233.657 406.636,233.504 406.636,233.197C406.636,232.811 406.696,232.051 406.816,230.917L411.476,230.957C411.889,230.957 412.729,230.944 413.996,230.917C414.102,230.917 414.242,230.891 414.416,230.837L414.436,231.257L414.496,231.977L414.556,232.817L414.596,233.177C414.609,233.297 414.616,233.377 414.616,233.417Z" style="fill-rule:nonzero;"/>
                </g>
                <g transform="matrix(1.65325,0,0,3.32807,1591.57,-507.408)">
                    <path d="M424.216,239.917C424.216,239.997 424.082,240.037 423.816,240.037L423.676,240.037L422.436,239.997L421.876,239.997C421.649,239.997 421.336,240.004 420.936,240.017L420.336,240.037L419.976,240.057L419.876,240.057C419.636,240.057 419.516,240.004 419.516,239.897C419.516,239.791 419.756,239.731 420.236,239.717C420.809,239.704 421.096,239.637 421.096,239.517C421.096,239.491 421.056,239.364 420.976,239.137C420.949,239.031 420.796,238.584 420.516,237.797L420.276,237.117L417.416,237.117C416.869,238.491 416.596,239.284 416.596,239.497C416.596,239.617 416.676,239.684 416.836,239.697L417.096,239.717L417.396,239.717L417.576,239.737C417.736,239.737 417.816,239.784 417.816,239.877C417.816,239.984 417.676,240.037 417.396,240.037C417.356,240.037 417.119,240.027 416.686,240.007C416.252,239.987 415.869,239.977 415.536,239.977L415.356,239.977L415.176,239.997L414.956,240.017L414.916,240.017C414.702,240.017 414.596,239.977 414.596,239.897C414.596,239.804 414.682,239.751 414.856,239.737C415.096,239.724 415.256,239.711 415.336,239.697C415.562,239.657 415.709,239.597 415.776,239.517C415.856,239.477 416.182,238.717 416.756,237.237C416.982,236.637 417.202,236.077 417.416,235.557C417.496,235.371 417.549,235.231 417.576,235.137C417.602,235.044 417.656,234.904 417.736,234.717C417.962,234.171 418.282,233.344 418.696,232.237L418.996,231.397L419.136,231.037C419.216,230.837 419.296,230.737 419.376,230.737C419.416,230.737 419.502,230.924 419.636,231.297C420.036,232.271 421.069,234.844 422.736,239.017C422.896,239.431 423.049,239.651 423.196,239.677C423.236,239.691 423.449,239.711 423.836,239.737C424.089,239.751 424.216,239.811 424.216,239.917ZM420.156,236.757L418.856,233.337C418.536,234.137 418.096,235.277 417.536,236.757L420.156,236.757Z" style="fill-rule:nonzero;"/>
                </g>
                <g transform="matrix(1.65325,0,0,3.32807,1592.44,-507.408)">
                    <path d="M427.956,239.897C427.956,239.977 427.896,240.017 427.776,240.017L427.576,240.017L427.156,239.997L426.636,239.997C426.529,239.997 426.416,239.991 426.296,239.977L426.076,239.977C425.942,239.977 425.692,239.984 425.326,239.997C424.959,240.011 424.682,240.017 424.496,240.017L424.416,240.017C424.189,240.017 424.076,239.977 424.076,239.897C424.076,239.791 424.222,239.731 424.516,239.717C424.916,239.691 425.126,239.644 425.146,239.577C425.166,239.511 425.176,239.224 425.176,238.717L425.176,232.277C425.176,231.757 425.162,231.454 425.136,231.367C425.109,231.281 425.009,231.231 424.836,231.217L424.436,231.197L424.236,231.197C424.116,231.197 424.056,231.151 424.056,231.057C424.056,230.964 424.142,230.917 424.316,230.917C424.302,230.917 424.342,230.917 424.436,230.917C424.529,230.931 424.676,230.937 424.876,230.937L426.316,230.937C426.396,230.937 426.516,230.931 426.676,230.917L427.616,230.917C427.829,230.917 427.936,230.971 427.936,231.077C427.936,231.157 427.709,231.204 427.256,231.217C427.069,231.217 426.956,231.247 426.916,231.307C426.876,231.367 426.856,231.551 426.856,231.857L426.856,239.397C426.856,239.531 426.906,239.617 427.006,239.657C427.106,239.697 427.342,239.731 427.716,239.757C427.876,239.771 427.956,239.817 427.956,239.897Z" style="fill-rule:nonzero;"/>
                </g>
                <g transform="matrix(1.65325,0,0,3.32807,1592.55,-507.408)">
                    <path d="M437.616,231.077C437.616,231.184 437.469,231.237 437.176,231.237C437.136,231.237 437.042,231.231 436.896,231.217L436.676,231.217C436.556,231.217 436.486,231.244 436.466,231.297C436.446,231.351 436.436,231.531 436.436,231.837L436.436,239.177C436.436,239.657 436.429,239.937 436.416,240.017C436.402,240.097 436.342,240.137 436.236,240.137C436.089,240.137 435.616,239.584 434.816,238.477C434.722,238.331 434.576,238.131 434.376,237.877C434.349,237.837 434.276,237.737 434.156,237.577C433.489,236.697 432.282,235.044 430.536,232.617L430.536,238.917C430.536,239.411 430.606,239.671 430.746,239.697C430.886,239.724 431.142,239.737 431.516,239.737L431.596,239.737C431.756,239.737 431.836,239.784 431.836,239.877C431.836,239.984 431.689,240.037 431.396,240.037C431.342,240.037 431.122,240.024 430.736,239.997C430.536,239.984 430.356,239.977 430.196,239.977C430.062,239.977 429.929,239.984 429.796,239.997C429.542,240.024 429.269,240.037 428.976,240.037C428.762,240.037 428.656,239.984 428.656,239.877C428.656,239.784 428.782,239.737 429.036,239.737L429.216,239.737L429.476,239.717C429.796,239.691 429.962,239.631 429.976,239.537C429.989,239.484 429.996,239.291 429.996,238.957L429.996,233.457C429.996,232.457 429.936,231.857 429.816,231.657C429.656,231.391 429.342,231.257 428.876,231.257C428.542,231.257 428.376,231.197 428.376,231.077C428.376,230.984 428.462,230.937 428.636,230.937L428.716,230.937L429.816,230.957L430.076,230.957C430.209,230.944 430.329,230.937 430.436,230.937L431.176,230.937L435.896,237.417L435.896,231.857C435.896,231.524 435.882,231.331 435.856,231.277C435.829,231.224 435.722,231.197 435.536,231.197C435.362,231.197 435.222,231.204 435.116,231.217L434.996,231.217C434.742,231.217 434.616,231.164 434.616,231.057C434.616,230.991 434.679,230.951 434.806,230.937C434.932,230.924 435.382,230.917 436.156,230.917C436.889,230.917 437.316,230.924 437.436,230.937C437.556,230.951 437.616,230.997 437.616,231.077Z" style="fill-rule:nonzero;"/>
                </g>
                <g transform="matrix(1.65325,0,0,3.32807,1693.34,-507.474)">
                    <path d="M386.936,237.457C386.936,238.204 386.616,238.844 385.976,239.377C385.336,239.911 384.562,240.177 383.656,240.177C382.976,240.177 382.276,239.964 381.556,239.537C381.476,239.511 381.422,239.497 381.396,239.497C381.316,239.497 381.269,239.564 381.256,239.697C381.242,239.831 381.222,239.947 381.196,240.047C381.169,240.147 381.102,240.197 380.996,240.197C380.862,240.197 380.796,240.131 380.796,239.997C380.796,239.971 380.816,239.771 380.856,239.397C380.896,239.024 380.916,238.704 380.916,238.437C380.916,238.317 380.909,238.147 380.896,237.927C380.882,237.707 380.876,237.537 380.876,237.417C380.876,237.164 380.942,237.037 381.076,237.037C381.209,237.037 381.309,237.244 381.376,237.657C381.629,239.124 382.416,239.857 383.736,239.857C384.856,239.857 385.416,239.297 385.416,238.177C385.416,237.684 385.282,237.284 385.016,236.977C384.749,236.671 384.229,236.324 383.456,235.937C382.442,235.431 381.796,235.031 381.516,234.737C381.156,234.351 380.976,233.871 380.976,233.297C380.976,232.564 381.242,231.961 381.776,231.487C382.309,231.014 382.982,230.777 383.796,230.777C384.302,230.777 384.842,230.931 385.416,231.237C385.482,231.277 385.536,231.297 385.576,231.297C385.669,231.297 385.729,231.201 385.756,231.007C385.782,230.814 385.862,230.717 385.996,230.717C386.129,230.717 386.196,230.784 386.196,230.917C386.196,230.944 386.189,230.997 386.176,231.077C386.149,231.291 386.136,231.564 386.136,231.897C386.136,232.097 386.156,232.457 386.196,232.977C386.209,233.031 386.216,233.091 386.216,233.157C386.216,233.317 386.162,233.397 386.056,233.397C385.936,233.397 385.849,233.277 385.796,233.037C385.676,232.451 385.432,231.981 385.066,231.627C384.699,231.274 384.269,231.097 383.776,231.097C382.816,231.097 382.336,231.611 382.336,232.637C382.336,233.091 382.462,233.464 382.716,233.757C382.849,233.917 382.996,234.044 383.156,234.137C383.316,234.231 383.782,234.464 384.556,234.837C385.422,235.264 386.036,235.674 386.396,236.067C386.756,236.461 386.936,236.924 386.936,237.457Z" style="fill-rule:nonzero;"/>
                </g>
                <g transform="matrix(1.65325,0,0,3.32807,1693.21,-507.474)">
                    <path d="M396.896,235.537C396.896,236.831 396.476,237.927 395.636,238.827C394.796,239.727 393.769,240.177 392.556,240.177C391.262,240.177 390.172,239.721 389.286,238.807C388.399,237.894 387.956,236.777 387.956,235.457C387.956,234.084 388.379,232.961 389.226,232.087C390.072,231.214 391.156,230.777 392.476,230.777C393.729,230.777 394.779,231.234 395.626,232.147C396.472,233.061 396.896,234.191 396.896,235.537ZM395.016,235.597C395.016,234.051 394.702,232.831 394.076,231.937C393.676,231.364 393.122,231.077 392.416,231.077C391.442,231.077 390.736,231.611 390.296,232.677C389.989,233.424 389.836,234.371 389.836,235.517C389.836,236.891 390.076,237.964 390.556,238.737C391.036,239.511 391.702,239.897 392.556,239.897C394.196,239.897 395.016,238.464 395.016,235.597Z" style="fill-rule:nonzero;"/>
                </g>
                <g transform="matrix(1.65325,0,0,3.32807,1692.06,-507.474)">
                    <path d="M406.856,231.077C406.856,231.171 406.749,231.217 406.536,231.217L406.436,231.217C406.302,231.204 406.169,231.197 406.036,231.197C405.822,231.197 405.716,231.331 405.716,231.597L405.716,235.297C405.716,236.591 405.689,237.424 405.636,237.797C405.582,238.171 405.442,238.544 405.216,238.917C404.696,239.757 403.776,240.177 402.456,240.177C401.362,240.177 400.489,239.924 399.836,239.417C399.236,238.951 398.936,238.051 398.936,236.717L398.936,232.497C398.936,231.777 398.912,231.384 398.866,231.317C398.819,231.251 398.622,231.217 398.276,231.217C397.996,231.217 397.856,231.164 397.856,231.057C397.856,230.964 397.949,230.917 398.136,230.917L398.756,230.917C398.889,230.931 398.989,230.937 399.056,230.937L400.736,230.937C400.829,230.937 400.942,230.931 401.076,230.917L401.296,230.917C401.536,230.917 401.656,230.971 401.656,231.077C401.656,231.211 401.409,231.271 400.916,231.257C400.769,231.257 400.682,231.281 400.656,231.327C400.629,231.374 400.616,231.524 400.616,231.777L400.616,236.577C400.616,237.884 400.782,238.731 401.116,239.117C401.489,239.557 402.042,239.777 402.776,239.777C403.802,239.777 404.502,239.351 404.876,238.497C405.062,238.071 405.156,237.384 405.156,236.437C405.156,236.451 405.156,236.377 405.156,236.217C405.142,236.071 405.136,235.917 405.136,235.757L405.136,231.597C405.136,231.424 405.102,231.317 405.036,231.277C404.969,231.237 404.786,231.217 404.486,231.217C404.186,231.217 404.036,231.157 404.036,231.037C404.036,230.944 404.116,230.897 404.276,230.897C404.342,230.897 404.409,230.904 404.476,230.917L405.396,230.937L405.616,230.937C405.762,230.924 405.976,230.917 406.256,230.917L406.536,230.917C406.749,230.917 406.856,230.971 406.856,231.077Z" style="fill-rule:nonzero;"/>
                </g>
                <g transform="matrix(1.65325,0,0,3.32807,1692.87,-507.474)">
                    <path d="M416.296,231.077C416.296,231.184 416.149,231.237 415.856,231.237C415.816,231.237 415.722,231.231 415.576,231.217L415.356,231.217C415.236,231.217 415.166,231.244 415.146,231.297C415.126,231.351 415.116,231.531 415.116,231.837L415.116,239.177C415.116,239.657 415.109,239.937 415.096,240.017C415.082,240.097 415.022,240.137 414.916,240.137C414.769,240.137 414.296,239.584 413.496,238.477C413.402,238.331 413.256,238.131 413.056,237.877C413.029,237.837 412.956,237.737 412.836,237.577C412.169,236.697 410.962,235.044 409.216,232.617L409.216,238.917C409.216,239.411 409.286,239.671 409.426,239.697C409.566,239.724 409.822,239.737 410.196,239.737L410.276,239.737C410.436,239.737 410.516,239.784 410.516,239.877C410.516,239.984 410.369,240.037 410.076,240.037C410.022,240.037 409.802,240.024 409.416,239.997C409.216,239.984 409.036,239.977 408.876,239.977C408.742,239.977 408.609,239.984 408.476,239.997C408.222,240.024 407.949,240.037 407.656,240.037C407.442,240.037 407.336,239.984 407.336,239.877C407.336,239.784 407.462,239.737 407.716,239.737L407.896,239.737L408.156,239.717C408.476,239.691 408.642,239.631 408.656,239.537C408.669,239.484 408.676,239.291 408.676,238.957L408.676,233.457C408.676,232.457 408.616,231.857 408.496,231.657C408.336,231.391 408.022,231.257 407.556,231.257C407.222,231.257 407.056,231.197 407.056,231.077C407.056,230.984 407.142,230.937 407.316,230.937L407.396,230.937L408.496,230.957L408.756,230.957C408.889,230.944 409.009,230.937 409.116,230.937L409.856,230.937L414.576,237.417L414.576,231.857C414.576,231.524 414.562,231.331 414.536,231.277C414.509,231.224 414.402,231.197 414.216,231.197C414.042,231.197 413.902,231.204 413.796,231.217L413.676,231.217C413.422,231.217 413.296,231.164 413.296,231.057C413.296,230.991 413.359,230.951 413.486,230.937C413.612,230.924 414.062,230.917 414.836,230.917C415.569,230.917 415.996,230.924 416.116,230.937C416.236,230.951 416.296,230.997 416.296,231.077Z" style="fill-rule:nonzero;"/>
                </g>
                <g transform="matrix(1.65325,0,0,3.32807,1692.69,-507.474)">
                    <path d="M426.336,235.477C426.336,237.037 425.736,238.244 424.536,239.097C423.669,239.711 422.556,240.017 421.196,240.017C421.236,240.017 421.079,240.011 420.726,239.997C420.372,239.984 419.829,239.977 419.096,239.977L418.656,239.977C418.682,239.977 418.562,239.984 418.296,239.997C418.029,240.011 417.762,240.017 417.496,240.017L417.316,240.017C417.089,240.017 416.976,239.957 416.976,239.837C416.976,239.731 417.056,239.684 417.216,239.697L417.676,239.717C417.942,239.731 418.089,239.657 418.116,239.497C418.142,239.444 418.156,239.211 418.156,238.797L418.156,232.377C418.156,231.737 418.142,231.397 418.116,231.357C418.049,231.277 417.816,231.231 417.416,231.217C417.176,231.217 417.056,231.171 417.056,231.077C417.056,230.971 417.176,230.917 417.416,230.917C417.389,230.917 417.449,230.917 417.596,230.917C417.756,230.931 417.996,230.937 418.316,230.937L419.656,230.937C421.402,230.937 422.642,231.044 423.376,231.257C424.256,231.511 424.969,232.027 425.516,232.807C426.062,233.587 426.336,234.477 426.336,235.477ZM424.436,235.417C424.436,232.657 423.316,231.277 421.076,231.277C420.396,231.277 420.019,231.314 419.946,231.387C419.872,231.461 419.836,231.704 419.836,232.117L419.836,239.177C419.836,239.417 419.892,239.564 420.006,239.617C420.119,239.671 420.409,239.697 420.876,239.697C423.249,239.697 424.436,238.271 424.436,235.417Z" style="fill-rule:nonzero;"/>
                </g>
            </g>
            <g>
                <g transform="matrix(1.65325,0,0,3.32807,1599.98,-541.021)">
                    <path d="M388.376,233.417C388.376,233.604 388.296,233.697 388.136,233.697C387.962,233.697 387.869,233.571 387.856,233.317C387.816,232.771 387.702,232.324 387.516,231.977C387.262,231.497 386.682,231.257 385.776,231.257C385.642,231.257 385.436,231.264 385.156,231.277L385.156,239.317C385.156,239.571 385.349,239.704 385.736,239.717C386.122,239.731 386.316,239.784 386.316,239.877C386.316,239.971 386.202,240.017 385.976,240.017L385.836,240.017C385.716,240.017 385.529,240.011 385.276,239.997L384.276,239.997C383.996,240.011 383.636,240.017 383.196,240.017L382.716,240.017C382.449,240.017 382.316,239.971 382.316,239.877C382.316,239.784 382.536,239.731 382.976,239.717C383.136,239.717 383.242,239.704 383.296,239.677C383.402,239.651 383.462,239.581 383.476,239.467C383.489,239.354 383.496,239.017 383.496,238.457L383.496,231.277C382.456,231.264 381.779,231.371 381.466,231.597C381.152,231.824 380.942,232.357 380.836,233.197C380.796,233.504 380.709,233.657 380.576,233.657C380.456,233.657 380.396,233.504 380.396,233.197C380.396,232.811 380.456,232.051 380.576,230.917L385.236,230.957C385.649,230.957 386.489,230.944 387.756,230.917C387.862,230.917 388.002,230.891 388.176,230.837L388.196,231.257L388.256,231.977L388.316,232.817L388.356,233.177C388.369,233.297 388.376,233.377 388.376,233.417Z" style="fill-rule:nonzero;"/>
                </g>
                <g transform="matrix(1.65325,0,0,3.32807,1599.98,-541.021)">
                    <path d="M398.396,239.877C398.396,239.971 398.196,240.017 397.796,240.017C397.782,240.017 397.716,240.011 397.596,239.997L395.776,239.997C395.549,239.997 395.402,240.004 395.336,240.017L395.016,240.037C394.722,240.051 394.576,240.004 394.576,239.897C394.576,239.817 394.689,239.771 394.916,239.757C395.356,239.744 395.589,239.684 395.616,239.577C395.642,239.511 395.656,239.291 395.656,238.917L395.656,235.257L391.836,235.257L391.836,239.377C391.862,239.524 391.919,239.617 392.006,239.657C392.092,239.697 392.322,239.724 392.696,239.737C392.842,239.737 392.916,239.784 392.916,239.877C392.916,239.971 392.782,240.017 392.516,240.017L392.196,240.017C392.009,240.004 391.736,239.997 391.376,239.997L389.416,240.017C389.216,240.017 389.116,239.971 389.116,239.877C389.116,239.784 389.309,239.731 389.696,239.717C389.989,239.704 390.149,239.624 390.176,239.477L390.176,231.997C390.176,231.624 390.169,231.424 390.156,231.397C390.142,231.291 390.022,231.237 389.796,231.237C389.342,231.224 389.116,231.157 389.116,231.037C389.116,230.957 389.209,230.917 389.396,230.917L389.556,230.917C389.836,230.917 390.106,230.924 390.366,230.937C390.626,230.951 390.809,230.957 390.916,230.957C391.062,230.957 391.332,230.951 391.726,230.937C392.119,230.924 392.349,230.917 392.416,230.917L392.556,230.917C392.782,230.917 392.896,230.971 392.896,231.077C392.896,231.197 392.716,231.251 392.356,231.237C392.129,231.237 391.986,231.261 391.926,231.307C391.866,231.354 391.836,231.491 391.836,231.717L391.836,234.877L395.656,234.877L395.656,232.117C395.656,231.691 395.642,231.451 395.616,231.397C395.589,231.237 395.456,231.171 395.216,231.197L394.836,231.237C394.662,231.211 394.576,231.157 394.576,231.077C394.576,230.971 394.716,230.917 394.996,230.917L396.176,230.917C396.536,230.931 396.796,230.937 396.956,230.937C397.276,230.937 397.496,230.931 397.616,230.917L397.896,230.917C398.216,230.917 398.376,230.964 398.376,231.057C398.376,231.164 398.286,231.217 398.106,231.217C397.926,231.217 397.776,231.224 397.656,231.237C397.482,231.237 397.382,231.271 397.356,231.337C397.329,231.404 397.316,231.617 397.316,231.977L397.316,238.897C397.316,239.351 397.349,239.601 397.416,239.647C397.482,239.694 397.716,239.717 398.116,239.717C398.302,239.717 398.396,239.771 398.396,239.877Z" style="fill-rule:nonzero;"/>
                </g>
                <g transform="matrix(1.65325,0,0,3.32807,1598.93,-541.08)">
                    <path d="M408.376,235.537C408.376,236.831 407.956,237.927 407.116,238.827C406.276,239.727 405.249,240.177 404.036,240.177C402.742,240.177 401.652,239.721 400.766,238.807C399.879,237.894 399.436,236.777 399.436,235.457C399.436,234.084 399.859,232.961 400.706,232.087C401.552,231.214 402.636,230.777 403.956,230.777C405.209,230.777 406.259,231.234 407.106,232.147C407.952,233.061 408.376,234.191 408.376,235.537ZM406.496,235.597C406.496,234.051 406.182,232.831 405.556,231.937C405.156,231.364 404.602,231.077 403.896,231.077C402.922,231.077 402.216,231.611 401.776,232.677C401.469,233.424 401.316,234.371 401.316,235.517C401.316,236.891 401.556,237.964 402.036,238.737C402.516,239.511 403.182,239.897 404.036,239.897C405.676,239.897 406.496,238.464 406.496,235.597Z" style="fill-rule:nonzero;"/>
                </g>
                <g transform="matrix(1.65325,0,0,3.32807,1597.34,-541.017)">
                    <path d="M418.336,231.077C418.336,231.171 418.229,231.217 418.016,231.217L417.916,231.217C417.782,231.204 417.649,231.197 417.516,231.197C417.302,231.197 417.196,231.331 417.196,231.597L417.196,235.297C417.196,236.591 417.169,237.424 417.116,237.797C417.062,238.171 416.922,238.544 416.696,238.917C416.176,239.757 415.256,240.177 413.936,240.177C412.842,240.177 411.969,239.924 411.316,239.417C410.716,238.951 410.416,238.051 410.416,236.717L410.416,232.497C410.416,231.777 410.392,231.384 410.346,231.317C410.299,231.251 410.102,231.217 409.756,231.217C409.476,231.217 409.336,231.164 409.336,231.057C409.336,230.964 409.429,230.917 409.616,230.917L410.236,230.917C410.369,230.931 410.469,230.937 410.536,230.937L412.216,230.937C412.309,230.937 412.422,230.931 412.556,230.917L412.776,230.917C413.016,230.917 413.136,230.971 413.136,231.077C413.136,231.211 412.889,231.271 412.396,231.257C412.249,231.257 412.162,231.281 412.136,231.327C412.109,231.374 412.096,231.524 412.096,231.777L412.096,236.577C412.096,237.884 412.262,238.731 412.596,239.117C412.969,239.557 413.522,239.777 414.256,239.777C415.282,239.777 415.982,239.351 416.356,238.497C416.542,238.071 416.636,237.384 416.636,236.437C416.636,236.451 416.636,236.377 416.636,236.217C416.622,236.071 416.616,235.917 416.616,235.757L416.616,231.597C416.616,231.424 416.582,231.317 416.516,231.277C416.449,231.237 416.266,231.217 415.966,231.217C415.666,231.217 415.516,231.157 415.516,231.037C415.516,230.944 415.596,230.897 415.756,230.897C415.822,230.897 415.889,230.904 415.956,230.917L416.876,230.937L417.096,230.937C417.242,230.924 417.456,230.917 417.736,230.917L418.016,230.917C418.229,230.917 418.336,230.971 418.336,231.077Z" style="fill-rule:nonzero;"/>
                </g>
                <g transform="matrix(1.65325,0,0,3.32807,1596.55,-541.017)">
                    <path d="M428.196,237.257C428.196,237.324 428.076,237.364 427.836,237.377L427.196,237.397C427.129,237.411 427.079,237.471 427.046,237.577C427.012,237.684 426.996,237.924 426.996,238.297L426.996,239.097C426.116,239.817 425.102,240.177 423.956,240.177C422.489,240.177 421.322,239.761 420.456,238.927C419.589,238.094 419.156,236.984 419.156,235.597C419.156,234.157 419.579,232.994 420.426,232.107C421.272,231.221 422.389,230.777 423.776,230.777C424.496,230.777 425.269,231.004 426.096,231.457C426.162,231.497 426.222,231.517 426.276,231.517C426.382,231.517 426.456,231.431 426.496,231.257C426.576,231.017 426.669,230.897 426.776,230.897C426.882,230.897 426.936,230.951 426.936,231.057C426.936,231.031 426.922,231.144 426.896,231.397C426.856,231.784 426.836,232.551 426.836,233.697C426.836,234.004 426.756,234.157 426.596,234.157C426.476,234.157 426.416,234.077 426.416,233.917C426.389,233.051 426.146,232.361 425.686,231.847C425.226,231.334 424.629,231.077 423.896,231.077C423.002,231.077 422.302,231.477 421.796,232.277C421.289,233.077 421.036,234.171 421.036,235.557C421.036,236.891 421.292,237.944 421.806,238.717C422.319,239.491 423.016,239.877 423.896,239.877C424.696,239.877 425.189,239.624 425.376,239.117C425.442,238.944 425.476,238.664 425.476,238.277C425.476,237.797 425.446,237.527 425.386,237.467C425.326,237.407 425.076,237.377 424.636,237.377L424.496,237.377C424.429,237.391 424.369,237.397 424.316,237.397C424.209,237.397 424.156,237.351 424.156,237.257C424.156,237.137 424.316,237.077 424.636,237.077L425.596,237.077C425.782,237.091 425.882,237.097 425.896,237.097C426.829,237.097 427.362,237.091 427.496,237.077L427.856,237.077C428.082,237.077 428.196,237.137 428.196,237.257Z" style="fill-rule:nonzero;"/>
                </g>
                <g transform="matrix(1.65325,0,0,3.32807,1596.19,-541.083)">
                    <path d="M437.696,239.877C437.696,239.971 437.496,240.017 437.096,240.017C437.082,240.017 437.016,240.011 436.896,239.997L435.076,239.997C434.849,239.997 434.702,240.004 434.636,240.017L434.316,240.037C434.022,240.051 433.876,240.004 433.876,239.897C433.876,239.817 433.989,239.771 434.216,239.757C434.656,239.744 434.889,239.684 434.916,239.577C434.942,239.511 434.956,239.291 434.956,238.917L434.956,235.257L431.136,235.257L431.136,239.377C431.162,239.524 431.219,239.617 431.306,239.657C431.392,239.697 431.622,239.724 431.996,239.737C432.142,239.737 432.216,239.784 432.216,239.877C432.216,239.971 432.082,240.017 431.816,240.017L431.496,240.017C431.309,240.004 431.036,239.997 430.676,239.997L428.716,240.017C428.516,240.017 428.416,239.971 428.416,239.877C428.416,239.784 428.609,239.731 428.996,239.717C429.289,239.704 429.449,239.624 429.476,239.477L429.476,231.997C429.476,231.624 429.469,231.424 429.456,231.397C429.442,231.291 429.322,231.237 429.096,231.237C428.642,231.224 428.416,231.157 428.416,231.037C428.416,230.957 428.509,230.917 428.696,230.917L428.856,230.917C429.136,230.917 429.406,230.924 429.666,230.937C429.926,230.951 430.109,230.957 430.216,230.957C430.362,230.957 430.632,230.951 431.026,230.937C431.419,230.924 431.649,230.917 431.716,230.917L431.856,230.917C432.082,230.917 432.196,230.971 432.196,231.077C432.196,231.197 432.016,231.251 431.656,231.237C431.429,231.237 431.286,231.261 431.226,231.307C431.166,231.354 431.136,231.491 431.136,231.717L431.136,234.877L434.956,234.877L434.956,232.117C434.956,231.691 434.942,231.451 434.916,231.397C434.889,231.237 434.756,231.171 434.516,231.197L434.136,231.237C433.962,231.211 433.876,231.157 433.876,231.077C433.876,230.971 434.016,230.917 434.296,230.917L435.476,230.917C435.836,230.931 436.096,230.937 436.256,230.937C436.576,230.937 436.796,230.931 436.916,230.917L437.196,230.917C437.516,230.917 437.676,230.964 437.676,231.057C437.676,231.164 437.586,231.217 437.406,231.217C437.226,231.217 437.076,231.224 436.956,231.237C436.782,231.237 436.682,231.271 436.656,231.337C436.629,231.404 436.616,231.617 436.616,231.977L436.616,238.897C436.616,239.351 436.649,239.601 436.716,239.647C436.782,239.694 437.016,239.717 437.416,239.717C437.602,239.717 437.696,239.771 437.696,239.877Z" style="fill-rule:nonzero;"/>
                </g>
                <g transform="matrix(1.65325,0,0,3.32807,1596.21,-541.021)">
                    <path d="M446.396,233.417C446.396,233.604 446.316,233.697 446.156,233.697C445.982,233.697 445.889,233.571 445.876,233.317C445.836,232.771 445.722,232.324 445.536,231.977C445.282,231.497 444.702,231.257 443.796,231.257C443.662,231.257 443.456,231.264 443.176,231.277L443.176,239.317C443.176,239.571 443.369,239.704 443.756,239.717C444.142,239.731 444.336,239.784 444.336,239.877C444.336,239.971 444.222,240.017 443.996,240.017L443.856,240.017C443.736,240.017 443.549,240.011 443.296,239.997L442.296,239.997C442.016,240.011 441.656,240.017 441.216,240.017L440.736,240.017C440.469,240.017 440.336,239.971 440.336,239.877C440.336,239.784 440.556,239.731 440.996,239.717C441.156,239.717 441.262,239.704 441.316,239.677C441.422,239.651 441.482,239.581 441.496,239.467C441.509,239.354 441.516,239.017 441.516,238.457L441.516,231.277C440.476,231.264 439.799,231.371 439.486,231.597C439.172,231.824 438.962,232.357 438.856,233.197C438.816,233.504 438.729,233.657 438.596,233.657C438.476,233.657 438.416,233.504 438.416,233.197C438.416,232.811 438.476,232.051 438.596,230.917L443.256,230.957C443.669,230.957 444.509,230.944 445.776,230.917C445.882,230.917 446.022,230.891 446.196,230.837L446.216,231.257L446.276,231.977L446.336,232.817L446.376,233.177C446.389,233.297 446.396,233.377 446.396,233.417Z" style="fill-rule:nonzero;"/>
                </g>
                <g transform="matrix(1.65325,0,0,3.32807,1596.49,-541.021)">
                    <path d="M453.436,237.457C453.436,238.204 453.116,238.844 452.476,239.377C451.836,239.911 451.062,240.177 450.156,240.177C449.476,240.177 448.776,239.964 448.056,239.537C447.976,239.511 447.922,239.497 447.896,239.497C447.816,239.497 447.769,239.564 447.756,239.697C447.742,239.831 447.722,239.947 447.696,240.047C447.669,240.147 447.602,240.197 447.496,240.197C447.362,240.197 447.296,240.131 447.296,239.997C447.296,239.971 447.316,239.771 447.356,239.397C447.396,239.024 447.416,238.704 447.416,238.437C447.416,238.317 447.409,238.147 447.396,237.927C447.382,237.707 447.376,237.537 447.376,237.417C447.376,237.164 447.442,237.037 447.576,237.037C447.709,237.037 447.809,237.244 447.876,237.657C448.129,239.124 448.916,239.857 450.236,239.857C451.356,239.857 451.916,239.297 451.916,238.177C451.916,237.684 451.782,237.284 451.516,236.977C451.249,236.671 450.729,236.324 449.956,235.937C448.942,235.431 448.296,235.031 448.016,234.737C447.656,234.351 447.476,233.871 447.476,233.297C447.476,232.564 447.742,231.961 448.276,231.487C448.809,231.014 449.482,230.777 450.296,230.777C450.802,230.777 451.342,230.931 451.916,231.237C451.982,231.277 452.036,231.297 452.076,231.297C452.169,231.297 452.229,231.201 452.256,231.007C452.282,230.814 452.362,230.717 452.496,230.717C452.629,230.717 452.696,230.784 452.696,230.917C452.696,230.944 452.689,230.997 452.676,231.077C452.649,231.291 452.636,231.564 452.636,231.897C452.636,232.097 452.656,232.457 452.696,232.977C452.709,233.031 452.716,233.091 452.716,233.157C452.716,233.317 452.662,233.397 452.556,233.397C452.436,233.397 452.349,233.277 452.296,233.037C452.176,232.451 451.932,231.981 451.566,231.627C451.199,231.274 450.769,231.097 450.276,231.097C449.316,231.097 448.836,231.611 448.836,232.637C448.836,233.091 448.962,233.464 449.216,233.757C449.349,233.917 449.496,234.044 449.656,234.137C449.816,234.231 450.282,234.464 451.056,234.837C451.922,235.264 452.536,235.674 452.896,236.067C453.256,236.461 453.436,236.924 453.436,237.457Z" style="fill-rule:nonzero;"/>
                </g>
            </g>
            <g transform="matrix(3.06767,1.34262,-0.952282,2.2415,-1111.08,-2842.4)">
                <ellipse cx="1274.22" cy="620.455" rx="4.737" ry="14.449" style="fill:rgb(212,226,32);"/>
            </g>
        </g>
    </g>
</svg>
